<svg width="22" height="27" viewBox="0 0 22 27" fill="none" xmlns="http://www.w3.org/2000/svg">
<path d="M15.2255 11.554V5.7973C15.2255 4.52497 14.7804 3.30476 13.988 2.4051C13.1957 1.50543 12.121 1 11.0005 1C9.87996 1 8.80532 1.50543 8.01298 2.4051C7.22064 3.30476 6.77551 4.52497 6.77551 5.7973V11.554M19.5699 9.00445L20.9929 24.3558C21.0717 25.2065 20.4859 25.9459 19.7321 25.9459H2.26885C2.09108 25.9462 1.91525 25.9039 1.75278 25.8219C1.59032 25.74 1.44487 25.6201 1.32586 25.4701C1.20686 25.3202 1.11697 25.1435 1.06203 24.9515C1.0071 24.7595 0.988345 24.5565 1.00699 24.3558L2.43109 9.00445C2.46394 8.6508 2.61094 8.32349 2.84374 8.08561C3.07653 7.84774 3.37865 7.71615 3.69183 7.71621H18.3092C18.9581 7.71621 19.5023 8.2727 19.5699 9.00445ZM7.19801 11.554C7.19801 11.6813 7.15349 11.8033 7.07426 11.8933C6.99503 11.9832 6.88756 12.0338 6.77551 12.0338C6.66346 12.0338 6.55599 11.9832 6.47676 11.8933C6.39752 11.8033 6.35301 11.6813 6.35301 11.554C6.35301 11.4268 6.39752 11.3048 6.47676 11.2148C6.55599 11.1249 6.66346 11.0743 6.77551 11.0743C6.88756 11.0743 6.99503 11.1249 7.07426 11.2148C7.15349 11.3048 7.19801 11.4268 7.19801 11.554ZM15.648 11.554C15.648 11.6813 15.6035 11.8033 15.5242 11.8933C15.445 11.9832 15.3375 12.0338 15.2255 12.0338C15.1134 12.0338 15.006 11.9832 14.9267 11.8933C14.8475 11.8033 14.803 11.6813 14.803 11.554C14.803 11.4268 14.8475 11.3048 14.9267 11.2148C15.006 11.1249 15.1134 11.0743 15.2255 11.0743C15.3375 11.0743 15.445 11.1249 15.5242 11.2148C15.6035 11.3048 15.648 11.4268 15.648 11.554Z" stroke="#F8F4F4" stroke-width="1.5" stroke-linecap="round" stroke-linejoin="round"/>
</svg>
